<?xml version="1.0" encoding="UTF-8"?>
<svg width="18px" height="18px" viewBox="0 0 18 18" version="1.1" xmlns="http://www.w3.org/2000/svg" xmlns:xlink="http://www.w3.org/1999/xlink">
    <!-- Generator: Sketch 46.2 (44496) - http://www.bohemiancoding.com/sketch -->
    <title>Page 1</title>
    <desc>Created with Sketch.</desc>
    <defs></defs>
    <g id="Dashboard" stroke="none" stroke-width="1" fill="none" fill-rule="evenodd">
        <g id="Page-1" fill-rule="nonzero" fill="#000000">
            <path d="M16.0416667,3.29166667 L1.95833333,3.29166667 L1.95833333,16.0416667 L16.0416667,16.0416667 L16.0416667,3.29166667 Z M14.625,2.04166667 L16.6666667,2.04166667 C17.0118446,2.04166667 17.2916667,2.3214887 17.2916667,2.66666667 L17.2916667,16.6666667 C17.2916667,17.0118446 17.0118446,17.2916667 16.6666667,17.2916667 L1.33333333,17.2916667 C0.988155365,17.2916667 0.708333333,17.0118446 0.708333333,16.6666667 L0.708333333,2.66666667 C0.708333333,2.3214887 0.988155365,2.04166667 1.33333333,2.04166667 L3.375,2.04166667 L3.375,1.33333333 C3.375,0.988155365 3.65482203,0.708333333 4,0.708333333 L6,0.708333333 C6.34517797,0.708333333 6.625,0.988155365 6.625,1.33333333 L6.625,2.04166667 L11.375,2.04166667 L11.375,1.33333333 C11.375,0.988155365 11.654822,0.708333333 12,0.708333333 L14,0.708333333 C14.345178,0.708333333 14.625,0.988155365 14.625,1.33333333 L14.625,2.04166667 Z" id="Combined-Shape"></path>
            <path d="M12.9583333,13.0416667 L15.3333333,13.0416667 C15.6785113,13.0416667 15.9583333,13.3214887 15.9583333,13.6666667 C15.9583333,14.0118446 15.6785113,14.2916667 15.3333333,14.2916667 L12.9583333,14.2916667 L12.9583333,15.3333333 C12.9583333,15.6785113 12.6785113,15.9583333 12.3333333,15.9583333 C11.9881554,15.9583333 11.7083333,15.6785113 11.7083333,15.3333333 L11.7083333,14.2916667 L9.625,14.2916667 L9.625,15.3333333 C9.625,15.6785113 9.34517797,15.9583333 9,15.9583333 C8.65482203,15.9583333 8.375,15.6785113 8.375,15.3333333 L8.375,14.2916667 L5.625,14.2916667 L5.625,15.3333333 C5.625,15.6785113 5.34517797,15.9583333 5,15.9583333 C4.65482203,15.9583333 4.375,15.6785113 4.375,15.3333333 L4.375,14.2916667 L2.66666667,14.2916667 C2.3214887,14.2916667 2.04166667,14.0118446 2.04166667,13.6666667 C2.04166667,13.3214887 2.3214887,13.0416667 2.66666667,13.0416667 L4.375,13.0416667 L4.375,11.625 L2.66666667,11.625 C2.3214887,11.625 2.04166667,11.345178 2.04166667,11 C2.04166667,10.654822 2.3214887,10.375 2.66666667,10.375 L4.375,10.375 L4.375,8.95833333 L2.66666667,8.95833333 C2.3214887,8.95833333 2.04166667,8.6785113 2.04166667,8.33333333 C2.04166667,7.98815536 2.3214887,7.70833333 2.66666667,7.70833333 L4.375,7.70833333 L4.375,7.33333333 C4.375,6.98815536 4.65482203,6.70833333 5,6.70833333 C5.34517797,6.70833333 5.625,6.98815536 5.625,7.33333333 L5.625,7.70833333 L8.375,7.70833333 L8.375,7.33333333 C8.375,6.98815536 8.65482203,6.70833333 9,6.70833333 C9.34517797,6.70833333 9.625,6.98815536 9.625,7.33333333 L9.625,7.70833333 L11.7083333,7.70833333 L11.7083333,7.33333333 C11.7083333,6.98815536 11.9881554,6.70833333 12.3333333,6.70833333 C12.6785113,6.70833333 12.9583333,6.98815536 12.9583333,7.33333333 L12.9583333,7.70833333 L15.3333333,7.70833333 C15.6785113,7.70833333 15.9583333,7.98815536 15.9583333,8.33333333 C15.9583333,8.6785113 15.6785113,8.95833333 15.3333333,8.95833333 L12.9583333,8.95833333 L12.9583333,10.375 L15.3333333,10.375 C15.6785113,10.375 15.9583333,10.654822 15.9583333,11 C15.9583333,11.345178 15.6785113,11.625 15.3333333,11.625 L12.9583333,11.625 L12.9583333,13.0416667 Z M11.7083333,13.0416667 L11.7083333,11.625 L9.625,11.625 L9.625,13.0416667 L11.7083333,13.0416667 Z M8.375,13.0416667 L8.375,11.625 L5.625,11.625 L5.625,13.0416667 L8.375,13.0416667 Z M5.625,10.375 L8.375,10.375 L8.375,8.95833333 L5.625,8.95833333 L5.625,10.375 Z M9.625,10.375 L11.7083333,10.375 L11.7083333,8.95833333 L9.625,8.95833333 L9.625,10.375 Z M6,2.95833333 C5.65482203,2.95833333 5.375,2.6785113 5.375,2.33333333 C5.375,1.98815536 5.65482203,1.70833333 6,1.70833333 L12,1.70833333 C12.345178,1.70833333 12.625,1.98815536 12.625,2.33333333 C12.625,2.6785113 12.345178,2.95833333 12,2.95833333 L6,2.95833333 Z M1.33333333,6.29166667 C0.988155365,6.29166667 0.708333333,6.01184464 0.708333333,5.66666667 C0.708333333,5.3214887 0.988155365,5.04166667 1.33333333,5.04166667 L16.6666667,5.04166667 C17.0118446,5.04166667 17.2916667,5.3214887 17.2916667,5.66666667 C17.2916667,6.01184464 17.0118446,6.29166667 16.6666667,6.29166667 L1.33333333,6.29166667 Z" id="Combined-Shape"></path>
        </g>
    </g>
</svg>