<?xml version="1.0" encoding="UTF-8"?>
<svg width="100px" height="62px" viewBox="0 0 100 62" version="1.1" xmlns="http://www.w3.org/2000/svg" xmlns:xlink="http://www.w3.org/1999/xlink">
    <!-- Generator: Sketch 46.2 (44496) - http://www.bohemiancoding.com/sketch -->
    <title>Page 1</title>
    <desc>Created with Sketch.</desc>
    <defs></defs>
    <g id="Dashboard" stroke="none" stroke-width="1" fill="none" fill-rule="evenodd">
        <g id="1-SignIn" transform="translate(-173.000000, -185.000000)">
            <g id="Group-5" transform="translate(170.000000, 185.000000)">
                <g id="Page-1" transform="translate(3.000000, 0.000000)">
                    <g id="Group" transform="translate(0.990099, 0.000000)" fill="#486D9E">
                        <path d="M6.59684727,19.5671647 C7.05954714,19.4653603 7.4432813,19.4417715 7.7578389,19.2896857 C7.97515774,19.1847775 8.20226571,18.9178514 8.24207487,18.6943783 C8.35432364,18.0612047 8.46918284,17.4292726 8.46461458,16.7737517 C8.44046804,13.2615003 8.45352023,9.74862821 8.45286762,6.23513535 C8.45286762,5.99800562 8.49267677,5.74908148 8.43589978,5.5231254 C8.31386187,5.03645077 8.32952449,4.43990189 7.7004093,4.24001767 C7.36757864,4.13386797 6.99167579,4.1469039 6.59684727,4.10158853 L6.59684727,19.5671647 Z M0.00288469346,0.00892803011 C0.247613115,0.00892803011 0.428385842,0.00830727165 0.609158569,0.00892803011 C3.20654288,0.0120318224 5.8052324,-0.0270759604 8.4013115,0.0374829191 C9.7104454,0.0697623588 11.041768,0.203846185 12.2523579,0.748251352 C13.4773053,1.29824334 14.2865406,2.23620937 14.6389495,3.47772628 C14.7897022,4.00723325 14.8373427,4.57708951 14.8393005,5.12832302 C14.8536579,9.89140266 14.8575735,14.6538615 14.8386479,19.4169412 C14.8353848,20.2953144 14.6409073,21.1420289 14.1181674,21.9111486 C13.6554675,22.5927414 12.9754488,23.0148572 12.225601,23.2197075 C11.3811248,23.4500089 10.5027129,23.6256835 9.5962388,23.6188552 C6.71692735,23.5971286 3.83696329,23.6114061 0.958304449,23.6114061 C0.80167826,23.6114061 0.645704679,23.6114061 0.48907849,23.6120268 C0.190183512,23.6120268 0.0276838401,23.4661486 0.00549512995,23.1868073 C-0.00559922514,23.0390668 0.00353730258,22.8900847 0.00353730258,22.7404819 C0.00288469346,15.3584224 0.00288469346,7.97574206 0.00288469346,0.593682496 L0.00288469346,0.00892803011 Z" id="Fill-3"></path>
                        <path d="M56.8955794,19.4524921 C58.1139809,19.6711566 58.6721971,19.0058452 58.7512886,17.9864466 C58.7741663,17.6895103 58.7669762,17.3907103 58.7669762,17.0925316 C58.7682835,13.3665396 58.7682835,9.64116888 58.7669762,5.91579814 C58.7669762,5.67725514 58.7807028,5.43684852 58.750635,5.20141155 C58.6552022,4.45596468 58.2486326,4.19630068 57.6296271,4.13418011 C57.3936599,4.11057429 57.1524634,4.13045287 56.8955794,4.13045287 L56.8955794,19.4524921 Z M50.4950495,23.5897223 L50.4950495,0.000677197276 C50.747358,0.000677197276 50.9885544,5.59915483e-05 51.2297509,0.000677197276 C53.5495508,0.00378322591 55.868697,-0.00988330009 58.1878433,0.0180709577 C59.0839959,0.0292526607 59.9971434,0.0460252154 60.8678037,0.218099202 C61.9750849,0.437384824 63.0614494,0.774078328 63.9040028,1.58599421 C64.6543917,2.30907768 65.0027866,3.19740187 65.1518185,4.1658616 C65.3452986,5.42566682 65.3492205,6.69789615 65.3459523,7.96950427 C65.3368012,11.4842863 65.3603325,14.9990683 65.3158844,18.5138503 C65.3047724,19.3829171 65.1635842,20.2681353 64.9374217,21.1117326 C64.6883815,22.0373292 63.9811334,22.7051253 63.0627567,23.0641822 C62.1868672,23.4064666 61.2541102,23.6182978 60.2873635,23.6182978 C57.1537707,23.6176766 54.0195243,23.6195402 50.8846242,23.618919 C50.7656601,23.618919 50.6460424,23.6021464 50.4950495,23.5897223 L50.4950495,23.5897223 Z" id="Fill-5"></path>
                        <path d="M47.5247525,23.6122141 L42.1203754,23.6122141 C41.1250651,20.3053966 40.1221715,16.974351 39.1148542,13.6296384 C39.0807293,13.6662911 39.0592432,13.6836856 39.0447085,13.7054287 C39.0301739,13.7290355 39.0118475,13.7569909 39.0118475,13.7830827 C39.0099517,17.0308831 39.0099517,20.2786836 39.0099517,23.4898314 C38.9524449,23.5469847 38.9334866,23.5724552 38.9088408,23.587986 C38.8854589,23.6028956 38.8557576,23.6178052 38.828584,23.6178052 C37.163414,23.6190476 35.4976121,23.6190476 33.8356019,23.6190476 C33.6637134,22.7921879 33.5967274,4.78640202 33.745866,0.0687668311 C34.6040447,-0.0542370887 35.4754941,0.0283867564 36.3418881,0.0134771904 C37.1899557,-0.000811143717 38.0392871,0.0103710308 38.9802503,0.0103710308 C40.0545536,3.27059614 41.1339123,6.54510958 42.2107433,9.8134107 C42.2701459,9.70096772 42.4091734,9.5642967 42.3952706,9.44439894 C42.1665073,7.52230739 42.347243,5.59400351 42.3011111,3.66942703 C42.2726737,2.4816316 42.2960556,1.29259371 42.2960556,0.0172045819 C44.0484337,0.00229501587 45.7628952,0.0153408862 47.5247525,0.00912856697 L47.5247525,23.6122141 Z" id="Fill-9"></path>
                        <path d="M25.2034165,0.0593181308 L31.625048,0.0593181308 C31.6442013,0.21907066 31.6831683,0.388294684 31.6831683,0.557518707 C31.6831683,6.67862946 31.679866,12.8003717 31.6745824,18.9214824 C31.6732614,20.3624123 31.0933795,21.5596092 30.0683489,22.6115764 C29.1622008,23.5410457 28.0737663,24.2103646 26.7977617,24.3505427 C25.7086668,24.4698835 24.6182509,24.7761285 23.4565056,24.4736721 C22.7306624,24.2848737 21.9341503,24.2949766 21.1838702,24.0663979 C19.8834287,23.6692266 18.8029197,22.9733875 17.9931984,21.9479404 C17.4522834,21.2622043 17.0929944,20.4748074 17.0163813,19.5781727 C16.7376681,16.3521818 16.8618341,13.1211396 16.8453227,9.89199161 C16.8281508,6.65021498 16.84136,3.40717549 16.84136,0.167293161 C17.545408,-0.00635089319 20.5326588,-0.0530769295 23.4380128,0.066263893 C23.4525428,0.317574196 23.4796216,0.577093128 23.4796216,0.836612059 C23.4822634,6.65463501 23.481603,12.4732894 23.4822634,18.2919438 C23.4822634,18.7465755 23.5100027,19.2012072 23.4915098,19.654576 C23.4783007,20.0170185 23.7021959,20.2342315 23.9789277,20.370621 C24.280757,20.5190077 24.5951349,20.3832496 24.8573366,20.2083427 C24.9412148,20.1527766 24.9795213,20.0189128 25.0125442,19.9134635 C25.1822819,19.3634855 25.2080397,18.8002473 25.2080397,18.2288005 C25.2014352,12.5017039 25.204077,6.77397584 25.2034165,1.04624779 L25.2034165,0.0593181308 Z" id="Fill-11"></path>
                        <path d="M85.439883,4.05160795 C85.439883,5.71618081 85.4392543,7.20347293 85.4405117,8.69138709 C85.4405117,8.80895221 85.4128495,8.95202088 85.4694313,9.03848412 C85.5417302,9.14982887 85.7466818,9.31218071 85.7888038,9.28605512 C86.1182353,9.08078269 86.5734041,9.25184305 86.8544268,8.91221047 C87.1090446,8.60367978 87.2511277,8.27524388 87.2429548,7.86656511 C87.2266089,7.06289241 87.2209508,6.2573536 87.2467269,5.45368091 C87.2655875,4.86647732 86.9877082,4.49512082 86.4702996,4.29482469 C86.1792179,4.1828579 85.8573306,4.14677971 85.439883,4.05160795 M79.286932,0.000276461196 C79.7659908,0.000276461196 80.1834384,-0.000345576495 80.600886,0.000276461196 C82.8019161,0.00338664966 85.0023175,0.000276461196 87.2033476,0.0120951773 C88.1224867,0.0170714789 89.0472839,0.110377133 89.9129847,0.392782245 C91.1785298,0.80643731 92.0322856,1.676046 92.5352345,2.93069603 C92.8703242,3.76795876 92.9250199,4.63445727 93.0212088,5.49597947 C93.0997946,6.20385836 93.0677316,6.92791023 93.0262383,7.64138747 C92.994804,8.19251286 92.8961003,8.74301622 92.7854516,9.28543309 C92.5528377,10.4138095 91.7537776,10.9288567 90.6787244,11.1310189 C90.5140086,11.1614988 90.3568371,11.2305449 90.0714136,11.3226065 C90.5976239,11.6093659 91.0835982,11.6578848 91.4815566,11.9427781 C92.2403807,12.485817 92.7106379,13.1333582 92.9017585,14.0682809 C93.0476137,14.779892 93.0325252,15.4790624 93.0400694,16.181965 C93.0633308,18.5083859 93.0494997,20.8354289 93.0494997,23.162472 C93.0494997,23.3049186 93.0344113,23.4479873 93.0243523,23.6190476 L87.2448408,23.6190476 L87.2448408,22.7214472 C87.2454695,20.2152574 87.2467269,17.7096895 87.2442122,15.2041217 C87.2435835,14.7643411 87.2322671,14.3326469 87.0857833,13.8984646 C86.9078651,13.3691105 86.7293182,13.1489092 86.2119096,13.0860834 C86.0924592,13.0723986 85.9704941,13.0736426 85.8497864,13.0773749 C85.7347368,13.0811071 85.6196872,13.096658 85.4467986,13.112209 L85.4467986,23.6109611 C83.3796786,23.6109611 81.3716552,23.6109611 79.3648891,23.6115832 C79.2077176,22.751305 79.1454777,4.74517997 79.286932,0.000276461196" id="Fill-13"></path>
                        <path d="M67.3267327,23.6190476 L67.3267327,0.144283367 C67.9419017,-0.0105239928 76.3033357,-0.0602612973 77.8223744,0.0926809138 C77.8223744,1.50770722 77.8287757,2.93081585 77.8178935,4.35454619 C77.8146928,4.74125373 77.6828251,4.84756722 77.2392121,4.85254095 C76.3801519,4.86311012 75.5198114,4.85564953 74.660111,4.85502781 C74.4763925,4.85502781 74.2913937,4.8469455 74.1076752,4.85689296 C73.7363973,4.87865303 73.6013289,4.98247965 73.596848,5.3312625 C73.5834052,6.43418723 73.5834052,7.53773367 73.5962079,8.64065839 C73.6013289,9.05223459 73.721034,9.16165666 74.1441628,9.1672521 C74.9731367,9.17719957 75.8021106,9.17036069 76.6310845,9.17036069 C76.8154432,9.17036069 76.9998018,9.16227837 77.1835204,9.17222584 C77.4747815,9.18652531 77.625213,9.34506297 77.6258532,9.62670045 C77.6277736,10.8496164 77.6341749,12.0725324 77.6220124,13.2948267 C77.6181716,13.6914817 77.4946257,13.7965517 77.0554935,13.8015254 C76.1349804,13.8114729 75.2131871,13.8040123 74.292674,13.8040123 L73.6288547,13.8040123 L73.6288547,18.8411578 C75.1190873,18.8511053 76.6099601,18.8405361 78.0918709,18.8467533 C78.2294998,19.5461841 78.2621467,22.3053611 78.1507633,23.6190476 L67.3267327,23.6190476 Z" id="Fill-15"></path>
                    </g>
                    <g id="Group-2" transform="translate(0.000000, 27.555556)" fill="#2D496F">
                        <path d="M14.1376768,9.64445994 C13.2583107,14.6088495 12.6386978,19.5970197 11.9248671,24.5941881 C10.7085416,24.5941881 9.61325968,24.6025435 8.51863209,24.5903318 C8.03184014,24.5845472 7.7995671,24.3396699 7.74722388,23.8672688 C7.56729406,22.2476078 7.35922976,20.6350167 7.01638167,19.0372083 C6.86458633,18.3282853 6.88356075,17.5852979 6.78672579,16.8635204 C6.66175635,15.9373571 6.49883808,15.0156929 6.35096848,14.0933859 C6.31759968,13.8857865 6.25086207,13.6794725 6.24628204,13.4718731 C6.22861621,12.681967 6.06177219,11.9184126 5.87857092,11.1535726 C5.80856186,10.8624193 5.8399678,10.5468425 5.70976404,10.2389784 C5.69536965,10.4395078 5.66723517,10.64068 5.66658088,10.8418522 C5.66265514,15.0966759 5.6587294,19.3521424 5.66330943,23.6069661 C5.66396372,24.3865887 5.79089603,24.6276097 4.69692272,24.601258 C3.41124238,24.5710501 2.12359916,24.5980444 0.836610234,24.5935454 C0.0285617725,24.5903318 0.00108158185,24.5639801 0.00108158185,23.7554351 C-0.000881288912,16.8795885 0.000427291594,10.0043846 0.000427291594,3.12789529 L0.000427291594,0.00104973978 L0.777069821,0.00104973978 C3.00558242,0.00104973978 5.23474931,-0.00087842808 7.46326191,0.00233518502 C8.22093003,0.00297790764 8.41001991,0.20479281 8.49376906,0.965776393 C8.6187385,2.10596632 8.75352229,3.24358536 9.02047271,4.36577905 C9.14478786,4.89152616 9.09571609,5.44169672 9.21087118,5.98865367 C9.43463844,7.05235961 9.49352457,8.14820168 9.63746842,9.22926112 C9.69308309,9.64445994 9.79515237,10.054517 9.87432149,10.4594322 C10.1340747,10.0744414 10.1661349,9.63289093 10.2040838,9.17334426 C10.2668956,8.42328696 10.4154195,7.68029961 10.5233774,6.93345592 C10.6005837,6.39485437 10.6843328,5.85689553 10.7406018,5.31636581 C10.8230424,4.53031605 10.8636084,3.73976722 10.9571719,2.95628835 C11.056624,2.11817805 11.2012221,1.28520954 11.3176858,0.449027406 C11.3582518,0.162373117 11.50743,0.0119760243 11.8018606,0.00104973978 C11.8646724,-0.00087842808 11.9274843,0.00104973978 11.9902962,0.00104973978 C14.3758384,0.00104973978 16.7613807,-0.00280659594 19.146923,0.00426335288 C19.7017611,0.00554879812 19.7796216,0.0987435781 19.7972875,0.649556864 C19.8025218,0.803810293 19.7979418,0.958063722 19.7979418,1.11231715 C19.7979418,8.57368405 19.7959789,16.0356937 19.7999046,23.4977033 C19.7999046,24.5453412 19.9026282,24.6166834 18.6627482,24.5986871 C17.4385711,24.5800482 16.214394,24.5980444 14.990217,24.5935454 C14.154034,24.5903318 14.1396397,24.57812 14.1389854,23.7727886 C14.1363682,19.3637114 14.1376768,14.9552769 14.1376768,10.545557 L14.1376768,9.64445994 Z" id="Fill-1"></path>
                        <path d="M80.5279809,14.3175728 L80.5279809,15.4133259 C80.5286134,18.1266805 80.5286134,20.8387498 80.5286134,23.5521044 C80.5286134,23.7371935 80.5393657,23.9222826 80.5267159,24.106729 C80.5026814,24.4569844 80.3831414,24.5797344 80.0169315,24.5913025 C79.5628058,24.6067266 79.1067827,24.5951585 78.6520246,24.5951585 C77.7115165,24.5951585 76.7710084,24.6028706 75.8298678,24.5919452 C75.356135,24.5868038 75.2707493,24.4826912 75.2511422,23.9891203 C75.2448173,23.8355221 75.2498772,23.6806385 75.2498772,23.5270402 L75.2498772,1.05285485 C75.2498772,0.898613947 75.2441848,0.744373041 75.2505097,0.590774805 C75.2713818,0.11969737 75.3681523,0.00980072426 75.8501073,0.00658737204 C77.2150142,-0.00241001416 78.5805536,-0.00176734372 79.9454604,0.0059447016 C80.3641668,0.00851538337 80.5924946,0.219311289 80.7114021,0.622908327 C81.0162609,1.65696507 81.3173246,2.69230715 81.639893,3.72057986 C82.1945841,5.48985159 82.7435827,7.261694 83.3495053,9.01361363 C83.457028,9.32466613 83.2818292,9.79445822 83.8226055,9.97376327 L83.8226055,9.05281653 L83.8226055,1.00658258 C83.8226055,0.821493494 83.8143832,0.636404406 83.824503,0.451957989 C83.8403151,0.16275629 83.9965394,0.00465936071 84.284321,0.00465936071 C85.7409385,0.00273134938 87.1975559,0.000160667611 88.6541734,0.00723004248 C88.9343651,0.00851538337 89.0962818,0.173039017 89.1026067,0.46802475 C89.1064016,0.653113838 89.1032392,0.838202925 89.1032392,1.02329201 C89.1032392,8.54574955 89.1013417,16.0675644 89.1051366,23.590022 C89.1057691,24.4280642 89.2234117,24.627292 88.0944224,24.6009426 C86.9123043,24.5739504 85.7282887,24.5964439 84.5449056,24.5945159 C83.6840909,24.5925878 83.6600564,24.5977292 83.4159164,23.7603296 C82.804934,21.6645813 82.2255759,19.5579076 81.615226,17.4615166 C81.3059399,16.4004677 80.959337,15.3503442 80.6291788,14.2963647 C80.595657,14.303434 80.5621352,14.3105034 80.5279809,14.3175728" id="Fill-7"></path>
                        <path d="M41.5806315,4.98490644 L37.1343921,4.98490644 C37.1181127,5.25104352 37.0920656,5.48696696 37.0907632,5.72224757 C37.0868562,6.83243775 37.0816468,7.94262792 37.0927168,9.05153241 C37.097275,9.49316568 37.1995099,9.5947349 37.6429617,9.59987765 C38.734335,9.61080598 39.8263596,9.6037347 40.9131747,9.6037347 C41.0635966,10.2767915 41.0889926,13.1168727 40.9502918,14.2489195 L37.0894609,14.2489195 L37.0894609,15.21447 L37.0894609,23.5373607 C37.0894609,23.753356 37.0946703,23.9693513 37.086205,24.1847038 C37.075135,24.4411982 36.9142942,24.5652669 36.6727073,24.5967663 C36.5802401,24.6089803 36.4858194,24.5999805 36.3913987,24.5999805 C34.7367569,24.6006233 33.0814639,24.6051232 31.4261709,24.5980519 C30.7600164,24.5954806 30.6968522,24.5292677 30.6968522,23.8472111 C30.6942475,16.1703778 30.6948987,8.49483022 30.6948987,0.819282616 C30.6948987,0.695213881 30.6896893,0.57178799 30.6968522,0.448362099 C30.714434,0.153939922 30.8876472,0.0144429512 31.1761188,0.00287177388 C31.3324014,-0.00291381476 31.4886839,0.0022289307 31.6443153,0.0022289307 L40.6383778,0.0022289307 C40.7627527,0.0022289307 40.8884299,-0.00355665794 41.0128048,0.00351461707 C41.4627684,0.0272998148 41.567608,0.112155115 41.5760733,0.542217204 C41.5910503,1.28148686 41.5806315,2.02204221 41.5806315,2.76195471 C41.5799803,3.46908221 41.5806315,4.17620971 41.5806315,4.98490644" id="Fill-17"></path>
                        <path d="M53.037269,9.58195093 L53.037269,14.1997276 C52.3974756,14.2744156 51.7377716,14.2241943 51.0827134,14.2332084 C50.4469021,14.2409347 49.8104271,14.23514 49.1082472,14.23514 C49.0883366,14.4785197 49.0518339,14.7128854 49.0518339,14.9466072 C49.0478518,17.7866815 49.0491791,20.6273997 49.0491791,23.467474 C49.0491791,23.6529062 49.0564797,23.8383384 49.0478518,24.0231267 C49.0272775,24.4925019 48.9283883,24.580711 48.4140315,24.6026023 C48.3821746,24.60389 48.3503177,24.6026023 48.3184607,24.6026023 C46.4727497,24.6013146 44.6270386,24.6013146 42.7813275,24.5968075 C42.7255779,24.5968075 42.6691645,24.5588197 42.5742574,24.5240511 L42.5742574,0 L53.4540639,0 C53.4733108,1.62639484 53.4593734,3.24763879 53.4653465,4.92940575 L49.0996193,4.92940575 C49.0803724,5.22043127 49.0524976,5.45608468 49.0511702,5.69109423 C49.0465244,6.80304351 49.0412149,7.91434894 49.0531613,9.02565436 C49.0578071,9.46283651 49.1666516,9.57229301 49.6126487,9.5774439 C50.7249866,9.59032114 51.8373245,9.58195093 53.037269,9.58195093" id="Fill-19"></path>
                        <path d="M54.609592,0.00973868557 C56.4618481,0.00973868557 58.1697969,0.030946191 59.877121,0.000741562074 C60.7492119,-0.0146820782 60.7492119,0.208318054 60.7460884,0.873462541 C60.7310954,4.01731455 60.7398413,7.16116656 60.7398413,10.3056612 L60.7398413,18.534816 C60.7398413,18.7198997 60.729846,18.905626 60.740466,19.0894244 C60.7623308,19.4602344 60.868531,19.5874794 61.2208657,19.5971192 C61.789349,19.6131855 62.3590818,19.6009751 62.9281898,19.6009751 L64.3543958,19.6009751 L64.3543958,21.375979 C64.3543958,22.2390602 64.3606429,23.1021414 64.3512722,23.96458 C64.3450252,24.4999088 64.2544427,24.5911654 63.71657,24.5975919 C62.8482273,24.6078743 61.9786352,24.6008052 61.1096679,24.6008052 C59.2224281,24.6008052 57.3345637,24.6033758 55.447324,24.5995199 C54.6114661,24.5975919 54.4590376,24.4427128 54.4584129,23.5854155 C54.4565388,18.0367609 54.4571635,12.488749 54.4571635,6.94009439 C54.4571635,4.99864366 54.4502917,3.05655029 54.4640353,1.11509957 C54.4665341,0.762926453 54.5539931,0.411395985 54.609592,0.00973868557" id="Fill-21"></path>
                        <path d="M66.4163312,0.00146270894 C68.233335,0.00146270894 69.9943105,-0.00367962717 71.755286,0.00531946101 C72.1637504,0.00724783705 72.2505039,0.117165271 72.2727947,0.549764296 C72.2818316,0.734245604 72.2739996,0.920012496 72.2739996,1.1044938 C72.2739996,8.56923745 72.2715898,16.0339811 72.2770119,23.4987247 C72.2776144,24.6242536 72.3107494,24.6094693 71.2329577,24.6017558 C69.6454892,24.5889 68.0586231,24.5978991 66.4777816,24.5978991 C66.3337949,23.8818288 66.2777666,1.77492587 66.4163312,0.00146270894" id="Fill-23"></path>
                        <path d="M27.7227723,0.00166739748 L27.7227723,24.5667223 C27.4827135,24.5789373 27.2590638,24.6001529 27.0354142,24.6001529 C25.5476576,24.6033674 24.0605088,24.6046531 22.5727523,24.6007958 C21.7954481,24.5988671 21.7845087,24.5898665 21.7845087,23.7817463 C21.7820778,19.4319122 21.783901,15.0814352 21.783901,10.7316011 L21.783901,1.10616267 C21.783901,0.890149623 21.7796468,0.674136579 21.7845087,0.458123534 C21.7918017,0.164320077 21.9413066,0.00681056521 22.2172222,0.00295318941 C22.6845771,-0.00283287429 23.1513243,0.00166739748 23.6174637,0.00166739748 L27.7227723,0.00166739748 Z" id="Fill-25"></path>
                        <path d="M91.0994243,26.5714286 C91.0994243,26.114294 91.1136006,25.8406571 91.0957261,25.5695957 C91.0661408,25.1208312 91.1240788,24.7454658 91.5111538,24.4370609 C91.7447548,24.250344 91.8723416,23.9181166 92.1114899,23.5549844 C91.7046913,23.5112025 91.4273286,23.4815853 91.129626,23.4500366 L91.129626,18.6984127 L94.9270292,18.6984127 C95.163712,20.2365739 95.0503015,22.6143174 94.6478174,23.7616607 C94.5313251,24.0932442 94.3494985,24.4222523 94.1263756,24.6862314 C93.5845939,25.3287952 93.0169249,25.9597697 92.215655,26.2585168 C91.8957633,26.3776293 91.5573809,26.4452337 91.0994243,26.5714286" id="Fill-32"></path>
                    </g>
                    <g id="Group-3" transform="translate(92.079208, 26.571429)" fill="#6D8CB6">
                        <path d="M7.92079208,3.93737251 L7.92079208,6.18707075 C6.98463919,6.58095521 6.04390053,6.97796078 5.10185165,7.37496636 C6.03800454,7.62403117 6.96040011,7.48233264 7.90637965,7.5834567 L7.90637965,9.84126984 L0.246172724,9.84126984 C-0.118068707,9.18333922 0.00836761734,8.47234968 0.0850155443,7.77634149 C0.108599522,7.56160891 0.259930044,7.36248191 0.545558217,7.28070874 C0.983172022,7.15648845 1.40375295,6.97796078 1.82957477,6.81753558 C2.24819037,6.66085571 2.67008153,6.50854539 3.13848552,6.12340005 C2.20233264,6.12340005 1.42209605,6.13089072 0.642514569,6.12027894 C0.143975488,6.11403671 0.0450538046,6.01790643 0.02540049,5.55161215 C0.0129533908,5.22389528 0.0155738327,4.89368153 0.0247453795,4.56534044 C0.0417782522,4.03724813 0.132183499,3.94111785 0.677235425,3.9398694 C3.06118249,3.9342514 5.44447444,3.93737251 7.92079208,3.93737251" id="Fill-27"></path>
                        <path d="M3.22242193,15.0822291 L3.22242193,17.5390574 C2.66431074,17.6041887 2.08426504,17.6110776 1.51884235,17.5359261 C1.15083016,17.4864514 0.814501142,17.2434615 0.636587966,16.8789766 C0.444661081,16.4869362 0.207646611,16.0861281 0.148545316,15.6652797 C0.00475247525,14.6325726 0.00414318355,13.5848352 0.327067784,12.5778049 C0.551287129,11.8782696 1.18068545,11.4336231 1.91549124,11.4261079 C3.23156131,11.4135827 4.54702209,11.4210978 5.86187357,11.4198453 C6.4693374,11.4198453 6.8873115,11.6997847 7.16697639,12.2640473 C7.4600457,12.8533605 7.65380046,13.4464312 7.65014471,14.1234211 C7.64466108,14.9895423 7.64770754,15.8362494 7.23156131,16.6347342 C6.91472963,17.2440877 6.4833511,17.5891584 5.79485149,17.569118 C5.32996192,17.554714 4.86385377,17.566613 4.31244478,17.566613 C4.29721249,16.7393201 4.30878903,15.9383302 4.30513328,15.0997645 C4.92722011,15.0139665 5.54260472,14.9281685 6.20246763,14.8361079 L6.20246763,14.2267544 C6.15433359,14.1960675 6.10680883,14.1397039 6.05928408,14.1390776 C4.68594059,14.1284312 3.31198781,14.1221685 1.93864433,14.1165322 C1.85151561,14.1159059 1.73818736,14.0939867 1.68152323,14.1397039 C1.55600914,14.2411584 1.37078446,14.3826938 1.37383092,14.50231 C1.37687738,14.6238049 1.56271135,14.8141887 1.69614623,14.8442494 C2.17078446,14.9494615 2.65760853,14.9989362 3.22242193,15.0822291" id="Fill-29"></path>
                        <path d="M7.75809263,2.95160406 C5.42199041,2.95160406 3.08131784,2.95433533 0.741298173,2.9495556 C0.0727211255,2.94750714 0.013959471,2.87854237 0.0048187692,2.16431319 C-0.00236321079,1.60918094 -0.000404488975,1.05473152 0.00351295466,0.499599278 C0.00547167648,0.188233592 0.166086866,0.0270881932 0.460548045,0.0120661645 C0.554566693,0.00728642809 0.647932433,0.011383345 0.74195108,0.011383345 C2.86389972,0.011383345 4.98584835,0.0107005255 7.10779699,0.011383345 C7.26318892,0.011383345 7.43490353,-0.0248060878 7.57005534,0.0318679296 C7.69867807,0.0864934886 7.82860661,0.221008927 7.88736827,0.354158727 C7.98269273,0.572660963 7.85341709,2.60541458 7.75809263,2.95160406" id="Fill-34"></path>
                    </g>
                    <g id="Group-4" transform="translate(0.990099, 57.079365)" fill="#2D496F">
                        <path d="M61.6932122,1.27092146 C61.2085809,1.9367319 60.8279271,2.45839782 60.4120167,3.03017112 C59.9967037,2.45839782 59.6190379,1.93947751 59.1810172,1.3361297 C59.05971,1.83857634 59.1188697,2.25041785 59.1122964,2.65333613 C59.10154,3.27796243 59.1272357,3.90464793 59.0925765,4.52652861 C59.084808,4.66930033 58.9001581,4.89581317 58.7866193,4.9054228 C58.6760684,4.91434603 58.524285,4.71323009 58.4430151,4.56633996 C58.3904287,4.47230281 58.4304661,4.31031182 58.4298685,4.17783613 L58.4298685,0.822700611 L58.4298685,0.0875635124 C58.8338275,-0.0490305891 59.1433701,-0.0826643125 59.4212414,0.425959955 C59.6991126,0.934584222 60.0929129,1.35946738 60.4472734,1.83583073 C60.8386835,1.27641268 61.1918488,0.78151646 61.5348555,0.278383413 C61.7422131,-0.0263793059 61.9991693,-0.0606994319 62.3762376,0.0779538771 L62.3762376,1.79533298 C62.3762376,2.68353784 62.3756401,3.5717427 62.3756401,4.45994757 C62.3762376,4.72764455 62.259711,4.92601488 62.0320358,4.92052366 C61.8091413,4.91640524 61.6920171,4.71940772 61.6926146,4.45033793 C61.6944073,3.82502523 61.6932122,3.20039894 61.6932122,2.57439984 L61.6932122,1.27092146 Z" id="Fill-36"></path>
                        <path d="M52.0143293,4.16699987 C52.9449341,4.16040641 53.7021587,3.3843566 53.6949345,2.44544841 C53.6877103,1.51906779 52.8963351,0.739721241 51.9709842,0.746974043 C51.0449767,0.754226845 50.3402915,1.53555143 50.2719902,2.4685255 C50.2050024,3.3843566 50.9832428,4.3133746 52.0143293,4.16699987 M49.5259302,2.477097 C49.3190562,1.07664686 50.6791708,0.0276279518 51.9722977,0.000594780601 C53.3744439,-0.0290757731 54.4574131,1.05488846 54.4554429,2.45599794 C54.4534726,3.8755691 53.4105648,4.91799455 51.9900298,4.92063193 C50.5149851,4.92260997 49.5265869,3.94216301 49.5259302,2.477097" id="Fill-38"></path>
                        <path d="M85.4511065,0.0363569199 C86.0350778,0.0649529181 86.1248274,0.105123487 86.1290158,0.465977751 C86.143974,1.73918053 86.1397857,3.01306416 86.1278191,4.28626694 C86.1260241,4.43469379 86.0314878,4.5838015 85.974048,4.72950492 C85.8777166,4.97529433 85.6694974,4.94806005 85.5462411,4.84729319 C85.3158836,4.66005749 85.108861,4.42311922 84.9269683,4.17392552 C84.3477836,3.380727 83.7901389,2.56778362 83.2103559,1.77526596 C83.098468,1.62207311 82.9261486,1.52675311 82.6981843,1.33407055 L82.6981843,4.85954862 C82.2392643,4.90040005 82.1770378,4.61988692 82.1782345,4.26175609 C82.1818245,3.21664044 82.1800295,2.17152479 82.1800295,1.12709 L82.1800295,0.0860594882 C82.5713381,-0.0807505015 82.8142606,-0.00926050591 83.0452165,0.337295758 C83.4891783,1.00521657 83.9750232,1.63705196 84.4471066,2.27978107 C84.7145607,2.6426779 84.9891947,3.00012788 85.3075069,3.42225928 C85.5384628,3.04370273 85.4289682,2.68489104 85.4457215,2.35807963 C85.4666631,1.96794852 85.4511065,1.57509397 85.4511065,1.18292028 L85.4511065,0.0363569199 Z" id="Fill-40"></path>
                        <path d="M28.3585206,2.07333074 C28.7906794,2.29626001 29.0880671,2.11983132 29.2696183,1.71431888 C29.3448006,1.54609618 29.3236382,1.26572501 29.2679476,1.07151669 C29.2089156,0.867734722 28.5974332,0.657798263 28.4838244,0.797983846 C28.3924919,0.909448481 28.3763416,1.13648074 28.3635328,1.31632859 C28.344598,1.5700303 28.3585206,1.82715118 28.3585206,2.07333074 M30.6930693,4.81344603 C30.1060907,5.0705669 29.8610522,4.78130592 29.6405175,4.3019396 C29.4483851,3.88548585 29.1933223,3.50527519 28.929349,3.14968249 C28.8268783,3.01223223 28.6236077,2.98693045 28.3585206,2.85837001 C28.3585206,3.47039975 28.374114,3.95181756 28.3535085,4.43118387 C28.3362444,4.83464482 28.1507948,5.01175734 27.7631884,4.87499092 C27.7514934,4.71018738 27.7269895,4.52555271 27.7264326,4.3402342 C27.7230912,3.09634358 27.7197498,1.8531368 27.7275464,0.60856235 C27.7308879,0.15586549 27.8361431,0.0314080452 28.1903351,0.00747392122 C28.5584498,-0.0157763707 28.9182108,0.00815775333 29.2746305,0.181167278 C30.0264532,0.54701746 30.2469878,1.63225903 29.702891,2.38720968 C29.6332778,2.48363001 29.5619938,2.57731501 29.490153,2.67441917 C29.8794301,3.36782493 30.2620243,4.04755406 30.6930693,4.81344603" id="Fill-42"></path>
                        <path d="M75.721809,2.79163294 L76.758058,2.79163294 C76.5695392,2.31152968 76.4076064,1.89840214 76.2444652,1.48461148 C76.0517168,1.94216846 75.6142566,2.21869203 75.721809,2.79163294 M74.3743831,4.9182782 C74.1193994,4.47000499 74.3858634,4.12252693 74.4946243,3.80488955 C74.86139,2.73261472 75.2994544,1.68951743 75.7127456,0.636473258 C75.7689387,0.493901156 75.8317783,0.35199218 75.9079108,0.222019473 C76.0837408,-0.0783766304 76.3653106,-0.0790397564 76.510325,0.251197019 C76.7296593,0.753183444 76.9012598,1.28036866 77.1018631,1.7929651 C77.4577527,2.7041003 77.8130381,3.6152355 78.185846,4.51841319 C78.244456,4.65965904 78.2517067,4.74321292 78.1411332,4.8214618 C78.0728556,4.86854375 77.9604694,4.94281387 77.9175693,4.91429944 C77.7375097,4.79559988 77.461378,4.81947242 77.4214991,4.47597312 C77.3967258,4.26775154 77.3103213,4.05488808 77.2088112,3.87319154 C77.0547334,3.59799422 76.8547343,3.37385762 76.510325,3.42558145 C76.3677275,3.44613836 76.2215046,3.42889708 76.0770943,3.42956021 C75.33027,3.43221271 75.3151643,3.42624458 75.0674313,4.21735396 C74.9514197,4.5900308 74.8299702,4.90567881 74.3743831,4.9182782" id="Fill-44"></path>
                        <path d="M8.33157468,2.93226633 C8.37378244,2.33309713 8.24775363,1.88043759 7.73234333,1.47822712 C7.70499746,2.03731349 7.34474528,2.40704304 7.54627249,2.95990966 C7.69548585,2.95990966 7.8304318,2.962674 7.96537774,2.9585275 C8.07178887,2.95576316 8.17819999,2.94401475 8.33157468,2.93226633 M7.07842024,3.57290053 C6.96011961,3.91153133 6.86857038,4.21422581 6.75205317,4.50448078 C6.5641989,4.96888874 6.55765967,4.96543333 5.94059406,4.86868167 C6.47621652,3.20731748 7.06890863,1.58949153 7.643172,0 C8.22040775,0.0380095801 8.31968517,0.50863729 8.46354825,0.870073842 C8.84817392,1.83759043 9.19296973,2.82722168 9.54787163,3.81063317 C9.67330597,4.15755698 9.78090604,4.51415595 9.9009901,4.879739 C9.27560183,4.95368491 9.2643068,4.95990466 9.07526358,4.4913502 C8.61692294,3.35590038 8.78159266,3.60538144 7.8304318,3.57428269 C7.57659074,3.5659897 7.32274969,3.57290053 7.07842024,3.57290053" id="Fill-46"></path>
                        <path d="M45.3164781,1.39075595 C44.9324611,1.27389087 44.6269448,1.16994246 44.3150636,1.08752183 C43.4098303,0.847640873 42.4791372,1.17301786 42.0095474,1.88589484 C41.3702263,2.85525992 42.2040311,4.1493869 43.491867,4.19982341 C44.0406648,4.22135119 44.5576379,4.17706548 45.0357143,3.90274008 C45.1396747,3.8424623 45.3376945,3.90704563 45.4932815,3.91504167 C45.4748939,4.07680754 45.5187412,4.27978373 45.4218529,4.3911131 C45.2924328,4.54119246 45.0703678,4.66482341 44.8603253,4.72325595 C43.8320368,5.0080377 42.8546676,5.05047817 41.9239745,4.40341468 C41.5788543,4.16414881 41.3765912,3.89781944 41.2549505,3.57613294 C40.7238331,2.16698611 41.1262376,1.03524008 42.7966761,0.461371032 C43.5873409,0.189505952 44.289604,0.369109127 45.0074257,0.596073413 C45.3546676,0.706172619 45.3454738,0.727700397 45.3164781,1.39075595" id="Fill-48"></path>
                        <path d="M14.6143619,2.15406815 C15.7176299,2.1967366 15.7176299,2.1967366 16.0907254,1.34405594 C15.7770315,0.661360861 15.2150523,0.748762349 14.6143619,0.824464424 L14.6143619,2.15406815 Z M13.8514851,0 C14.6016807,0.0701964702 15.2891375,-0.112176712 15.9712548,0.178243978 C16.7074342,0.490687091 17.0725205,1.48926629 16.6293444,2.14580975 C16.2829463,2.65851926 15.7830384,2.9021423 15.1936944,2.96201576 C15.0128199,2.98059718 14.8286082,2.96476856 14.5829925,2.96476856 L14.5829925,4.92063492 L13.8514851,4.92063492 L13.8514851,0 Z" id="Fill-51"></path>
                        <path d="M68.0881538,2.00792497 L68.6179885,2.00792497 C68.7108062,2.00723866 68.803624,2.01547441 68.8951526,2.00312079 C69.1877864,1.964001 69.4630168,1.69977082 69.4746191,1.35592844 C69.4829984,1.12258231 69.4050057,0.911198168 69.1329981,0.768445242 C68.7713956,0.578336778 68.4510454,0.590690397 68.0881538,0.673047854 L68.0881538,2.00792497 Z M67.4107131,0.00252088942 C67.9469934,0.00252088942 68.4394432,-0.00434223202 68.9325376,0.00457982585 C69.6853927,0.0176197566 70.2326307,0.523431807 70.2932201,1.24955006 C70.3512312,1.94409795 69.7382473,2.69766868 69.0324456,2.77041777 C68.7578597,2.79924288 68.4787619,2.77522195 68.1107137,2.77522195 C68.0984669,3.11288753 68.0829972,3.42515955 68.0752624,3.73743158 C68.0701059,3.99960282 68.1132919,4.27206874 68.0578591,4.52051373 C68.0230524,4.67767922 67.8619105,4.89043598 67.7310632,4.9144569 C67.4945069,4.95838088 67.3494791,4.76278192 67.3294975,4.49649281 C67.3249855,4.43129316 67.3275638,4.3660935 67.3275638,4.30020754 C67.3269193,2.98797872 67.3249855,1.6757499 67.3307867,0.363521077 C67.3307867,0.246848013 67.3817075,0.129488636 67.4107131,0.00252088942 L67.4107131,0.00252088942 Z" id="Fill-53"></path>
                        <path d="M20.7821782,4.92033132 L20.7821782,0.00742497399 C21.6110279,0.00742497399 22.3914287,0.00674186688 23.1718295,0.00742497399 C23.2433848,0.00742497399 23.3410281,-0.0151175607 23.381278,0.0183546878 C23.5079906,0.123553183 23.7256382,0.274519854 23.7025318,0.362640672 C23.6615365,0.519755307 23.4886111,0.73425094 23.3373013,0.760892118 C22.9914503,0.82168865 22.6254744,0.782751545 22.2676975,0.784117759 C22.0895545,0.784800866 21.9114114,0.784800866 21.6885463,0.784800866 C21.4887875,1.22335563 21.613264,1.6619104 21.6028289,2.16604345 C22.0172537,2.16604345 22.3750306,2.12915566 22.7171547,2.17697316 C23.007103,2.21864269 23.5616572,1.9214911 23.5221526,2.48915311 C23.4871203,2.99191994 22.9683439,2.71799399 22.6657243,2.75898042 C22.3534149,2.80133306 22.0306704,2.76854392 21.6482964,2.76854392 L21.6482964,4.31988017 L23.429727,4.31988017 C23.6429023,4.31919706 23.7532169,4.40800098 23.7524715,4.6115669 C23.7517261,4.80283689 23.6712263,4.92033132 23.4461251,4.92033132 C22.5889513,4.92101442 21.7302869,4.92033132 20.7821782,4.92033132" id="Fill-55"></path>
                        <path d="M0.627678483,2.17289537 C0.923962675,2.17289537 1.14566732,2.15655135 1.36398199,2.17698138 C1.61823044,2.20081643 1.7877294,2.08368422 1.94570244,1.9093479 C2.33283808,1.48236014 2.20605285,0.938240162 1.65484221,0.824512958 C1.32804821,0.757093837 0.977524348,0.811573935 0.627678483,0.811573935 L0.627678483,2.17289537 Z M0.60191464,3.03504292 L0.60191464,4.88872824 C0.288002556,4.91596829 0.0059562777,5.02220448 0.00392229011,4.59930272 C-0.00285766851,3.10518605 0.00121030666,1.61106937 0.00121030666,0.0202505168 C0.527335095,0.0202505168 1.00939015,-0.031505576 1.47856329,0.0304655351 C2.71454975,0.191862824 3.1308392,0.856520016 2.91659251,1.94339796 C2.837267,2.34791269 2.49420109,2.66185425 2.0507918,2.75923743 C1.5917886,2.86138761 1.12668344,2.93629774 0.60191464,3.03504292 L0.60191464,3.03504292 Z" id="Fill-57"></path>
                        <path d="M94.0594059,0.0456433865 C93.6200872,0.641922766 93.3158933,1.12717081 92.9418523,1.543881 C92.524728,2.00582617 92.3811171,2.52123088 92.4176726,3.13738624 C92.4450892,3.59453376 92.4490059,4.05716431 92.4072282,4.51157032 C92.3928671,4.66098286 92.2205341,4.88852855 92.0906315,4.91388756 C91.852368,4.95980792 91.6878683,4.76584578 91.6832989,4.49923351 C91.6728544,3.91049329 91.6722017,3.31969694 91.6819933,2.73095673 C91.6872155,2.45817605 91.6232434,2.24707944 91.4482993,2.02364602 C90.9854806,1.43147891 90.566398,0.802986736 90.0990099,0.145023283 C90.5115648,-0.0688148392 90.8131476,-0.0592195388 91.0677305,0.261537644 C91.2243969,0.459612059 91.3569105,0.677562453 91.5142297,0.875636867 C91.6676322,1.06959901 91.8380069,1.2491682 92.0521177,1.49316298 C92.3367283,1.12305854 92.6494083,0.837255666 92.8119497,0.477431902 C93.0639215,-0.0790955181 93.4503653,-0.00644538689 94.0594059,0.0456433865" id="Fill-59"></path>
                    </g>
                </g>
            </g>
        </g>
    </g>
</svg>