<?xml version="1.0" encoding="UTF-8"?>
<svg width="18px" height="18px" viewBox="0 0 18 18" version="1.1" xmlns="http://www.w3.org/2000/svg" xmlns:xlink="http://www.w3.org/1999/xlink">
    <!-- Generator: Sketch 46.2 (44496) - http://www.bohemiancoding.com/sketch -->
    <title>Group</title>
    <desc>Created with Sketch.</desc>
    <defs></defs>
    <g id="Dashboard" stroke="none" stroke-width="1" fill="none" fill-rule="evenodd">
        <g id="Group" transform="translate(1.000000, 1.000000)" fill-rule="nonzero" fill="#000000">
            <polygon id="Shape" points="14.4761905 14.9393398 11.4255682 11.8887175 10.364908 12.9493777 14.4761905 17.0606602 17.0606602 14.4761905 12.9493777 10.364908 11.8887175 11.4255682 14.9393398 14.4761905"></polygon>
            <path d="M6.85714286,14.4642857 C2.65583387,14.4642857 -0.75,11.0584518 -0.75,6.85714286 C-0.75,2.65583387 2.65583387,-0.75 6.85714286,-0.75 C11.0584518,-0.75 14.4642857,2.65583387 14.4642857,6.85714286 C14.4642857,11.0584518 11.0584518,14.4642857 6.85714286,14.4642857 Z M6.85714286,12.9642857 C10.2300247,12.9642857 12.9642857,10.2300247 12.9642857,6.85714286 C12.9642857,3.48426099 10.2300247,0.75 6.85714286,0.75 C3.48426099,0.75 0.75,3.48426099 0.75,6.85714286 C0.75,10.2300247 3.48426099,12.9642857 6.85714286,12.9642857 Z" id="Oval"></path>
        </g>
    </g>
</svg>